<svg width="162" height="34" viewBox="0 0 162 34" fill="none" xmlns="http://www.w3.org/2000/svg">
<rect width="31" height="30" rx="7" fill="#F94A3D"/>
<path d="M14.848 25.196C13.4107 25.196 12.1227 24.9627 10.984 24.496C9.84533 24.0293 8.93067 23.3387 8.24 22.424C7.568 21.5093 7.21333 20.408 7.176 19.12H12.272C12.3467 19.848 12.5987 20.408 13.028 20.8C13.4573 21.1733 14.0173 21.36 14.708 21.36C15.4173 21.36 15.9773 21.2013 16.388 20.884C16.7987 20.548 17.004 20.0907 17.004 19.512C17.004 19.0267 16.836 18.6253 16.5 18.308C16.1827 17.9907 15.7813 17.7293 15.296 17.524C14.8293 17.3187 14.1573 17.0853 13.28 16.824C12.0107 16.432 10.9747 16.04 10.172 15.648C9.36933 15.256 8.67867 14.6773 8.1 13.912C7.52133 13.1467 7.232 12.148 7.232 10.916C7.232 9.08667 7.89467 7.65867 9.22 6.632C10.5453 5.58667 12.272 5.064 14.4 5.064C16.5653 5.064 18.3107 5.58667 19.636 6.632C20.9613 7.65867 21.6707 9.096 21.764 10.944H16.584C16.5467 10.3093 16.3133 9.81467 15.884 9.46C15.4547 9.08667 14.904 8.9 14.232 8.9C13.6533 8.9 13.1867 9.05867 12.832 9.376C12.4773 9.67467 12.3 10.1133 12.3 10.692C12.3 11.3267 12.5987 11.8213 13.196 12.176C13.7933 12.5307 14.7267 12.9133 15.996 13.324C17.2653 13.7533 18.292 14.164 19.076 14.556C19.8787 14.948 20.5693 15.5173 21.148 16.264C21.7267 17.0107 22.016 17.972 22.016 19.148C22.016 20.268 21.7267 21.2853 21.148 22.2C20.588 23.1147 19.7667 23.8427 18.684 24.384C17.6013 24.9253 16.3227 25.196 14.848 25.196Z" fill="white"/>
<path d="M55.57 4.94V9.05H46.99V13.49H53.41V17.48H46.99V26H41.86V4.94H55.57ZM63.0963 12.05C63.6963 11.13 64.4463 10.41 65.3463 9.89C66.2463 9.35 67.2463 9.08 68.3463 9.08V14.51H66.9363C65.6563 14.51 64.6963 14.79 64.0563 15.35C63.4163 15.89 63.0963 16.85 63.0963 18.23V26H57.9663V9.26H63.0963V12.05ZM87.5983 9.26L77.0983 33.95H71.5783L75.4183 25.43L68.6083 9.26H74.3383L78.2083 19.73L82.0483 9.26H87.5983ZM102.863 4.94V9.05H94.2834V13.49H100.703V17.48H94.2834V26H89.1534V4.94H102.863ZM112.88 26.24C111.24 26.24 109.76 25.89 108.44 25.19C107.14 24.49 106.11 23.49 105.35 22.19C104.61 20.89 104.24 19.37 104.24 17.63C104.24 15.91 104.62 14.4 105.38 13.1C106.14 11.78 107.18 10.77 108.5 10.07C109.82 9.37 111.3 9.02 112.94 9.02C114.58 9.02 116.06 9.37 117.38 10.07C118.7 10.77 119.74 11.78 120.5 13.1C121.26 14.4 121.64 15.91 121.64 17.63C121.64 19.35 121.25 20.87 120.47 22.19C119.71 23.49 118.66 24.49 117.32 25.19C116 25.89 114.52 26.24 112.88 26.24ZM112.88 21.8C113.86 21.8 114.69 21.44 115.37 20.72C116.07 20 116.42 18.97 116.42 17.63C116.42 16.29 116.08 15.26 115.4 14.54C114.74 13.82 113.92 13.46 112.94 13.46C111.94 13.46 111.11 13.82 110.45 14.54C109.79 15.24 109.46 16.27 109.46 17.63C109.46 18.97 109.78 20 110.42 20.72C111.08 21.44 111.9 21.8 112.88 21.8ZM131.681 26.24C130.041 26.24 128.561 25.89 127.241 25.19C125.941 24.49 124.911 23.49 124.151 22.19C123.411 20.89 123.041 19.37 123.041 17.63C123.041 15.91 123.421 14.4 124.181 13.1C124.941 11.78 125.981 10.77 127.301 10.07C128.621 9.37 130.101 9.02 131.741 9.02C133.381 9.02 134.861 9.37 136.181 10.07C137.501 10.77 138.541 11.78 139.301 13.1C140.061 14.4 140.441 15.91 140.441 17.63C140.441 19.35 140.051 20.87 139.271 22.19C138.511 23.49 137.461 24.49 136.121 25.19C134.801 25.89 133.321 26.24 131.681 26.24ZM131.681 21.8C132.661 21.8 133.491 21.44 134.171 20.72C134.871 20 135.221 18.97 135.221 17.63C135.221 16.29 134.881 15.26 134.201 14.54C133.541 13.82 132.721 13.46 131.741 13.46C130.741 13.46 129.911 13.82 129.251 14.54C128.591 15.24 128.261 16.27 128.261 17.63C128.261 18.97 128.581 20 129.221 20.72C129.881 21.44 130.701 21.8 131.681 21.8ZM141.843 17.6C141.843 15.88 142.163 14.37 142.803 13.07C143.463 11.77 144.353 10.77 145.473 10.07C146.593 9.37 147.843 9.02 149.223 9.02C150.323 9.02 151.323 9.25 152.223 9.71C153.143 10.17 153.863 10.79 154.383 11.57V3.8H159.513V26H154.383V23.6C153.903 24.4 153.213 25.04 152.313 25.52C151.433 26 150.403 26.24 149.223 26.24C147.843 26.24 146.593 25.89 145.473 25.19C144.353 24.47 143.463 23.46 142.803 22.16C142.163 20.84 141.843 19.32 141.843 17.6ZM154.383 17.63C154.383 16.35 154.023 15.34 153.303 14.6C152.603 13.86 151.743 13.49 150.723 13.49C149.703 13.49 148.833 13.86 148.113 14.6C147.413 15.32 147.063 16.32 147.063 17.6C147.063 18.88 147.413 19.9 148.113 20.66C148.833 21.4 149.703 21.77 150.723 21.77C151.743 21.77 152.603 21.4 153.303 20.66C154.023 19.92 154.383 18.91 154.383 17.63Z" fill="#F94A3D"/>
</svg>
